<?xml version="1.0" encoding="UTF-8"?>
<svg width="48px" height="48px" viewBox="0 0 48 48" version="1.1" xmlns="http://www.w3.org/2000/svg" xmlns:xlink="http://www.w3.org/1999/xlink">
    <title>icon/l/fc/series</title>
    <g id="icon/l/fc/series" stroke="none" stroke-width="1" fill="none" fill-rule="evenodd">
        <path d="M31.6387562,13.4092835 L31.6387562,7.15205047 L41.6501127,7.15205047 C43.3752141,7.15205047 44.7783686,8.55556557 44.7783686,10.280667 C44.7783686,12.0057684 43.3752141,13.4092835 41.6501127,13.4092835 L31.6387562,13.4092835 Z M3.15205047,40.5678233 L34.1083371,40.5678233 L34.1083371,22.9126634 L3.15205047,22.9126634 L3.15205047,40.5678233 Z M44.8479495,24.6100045 L44.8479495,38.8704822 L37.260027,35.7223975 L37.260027,27.7580892 L44.8479495,24.6100045 Z M47.2987832,20.9391618 C46.8596665,20.6464173 46.3066246,20.5926994 45.8199189,20.7942316 L37.260027,24.3457413 L37.260027,21.3368184 C37.260027,20.4679585 36.5530419,19.7609734 35.6841821,19.7609734 L20.2058585,19.7609734 L20.2058585,11.8565119 L28.4870662,11.8565119 L28.4870662,14.9847679 C28.4870662,15.8536278 29.1940514,16.5606129 30.0629112,16.5606129 L41.6501127,16.5606129 C45.1129338,16.5606129 47.9304191,13.7434881 47.9304191,10.280667 C47.9304191,6.81748535 45.1129338,4 41.6501127,4 L30.0629112,4 C29.1940514,4 28.4870662,4.70698513 28.4870662,5.57584498 L28.4870662,8.70446147 L1.57584498,8.70446147 C0.706985128,8.70446147 2.34479103e-13,9.4114466 2.34479103e-13,10.280667 C2.34479103e-13,11.1495268 0.706985128,11.8565119 1.57584498,11.8565119 L17.0541685,11.8565119 L17.0541685,19.7609734 L1.57584498,19.7609734 C0.706985128,19.7609734 2.34479103e-13,20.4679585 2.34479103e-13,21.3368184 L2.34479103e-13,42.1436683 C2.34479103e-13,43.0128887 0.706985128,43.7198738 1.57584498,43.7198738 L35.6841821,43.7198738 C36.5530419,43.7198738 37.260027,43.0128887 37.260027,42.1436683 L37.260027,39.1340243 L45.8195584,42.685534 C46.2986931,42.8852636 46.8665164,42.8304642 47.2987832,42.5409644 C47.7375394,42.2478594 48,41.757909 48,41.2301037 L48,22.249662 C48,21.7222172 47.7375394,21.2322668 47.2987832,20.9391618 L47.2987832,20.9391618 Z" id="Combined-Shape" fill="#000000"></path>
        <path d="M7.59145561,37.7042632 L12.0871744,37.7042632 C12.9563948,37.7042632 13.6633799,36.9972781 13.6633799,36.1284182 C13.6633799,35.2591978 12.9563948,34.5522127 12.0871744,34.5522127 L7.59145561,34.5522127 C6.72259576,34.5522127 6.01561064,35.2591978 6.01561064,36.1284182 C6.01561064,36.9972781 6.72259576,37.7042632 7.59145561,37.7042632" id="Fill-4" fill="#485FE0"></path>
    </g>
</svg>